<svg width="24" height="24" viewBox="0 0 24 24" fill="none" xmlns="http://www.w3.org/2000/svg">
<rect x="0.5" y="0.5" width="23" height="23" rx="11.5" fill="#060607" stroke="#9EA3AC"/>
<path d="M11.1328 14.6484H12.875C12.875 14.4453 12.8802 14.2682 12.8906 14.1172C12.901 13.9609 12.9271 13.8177 12.9688 13.6875C13.0052 13.5573 13.0677 13.4297 13.1562 13.3047C13.2448 13.1745 13.3672 13.0339 13.5234 12.8828C13.7734 12.6589 14.0234 12.4245 14.2734 12.1797C14.5286 11.9349 14.7552 11.6745 14.9531 11.3984C15.1562 11.1224 15.3203 10.8281 15.4453 10.5156C15.5755 10.1979 15.6406 9.85156 15.6406 9.47656C15.6406 8.99219 15.5599 8.5625 15.3984 8.1875C15.237 7.8125 15.0052 7.4974 14.7031 7.24219C14.401 6.98698 14.0286 6.79427 13.5859 6.66406C13.1484 6.52865 12.651 6.46094 12.0938 6.46094C11.5938 6.46094 11.1302 6.52604 10.7031 6.65625C10.276 6.78125 9.90365 6.97135 9.58594 7.22656C9.27344 7.47656 9.02344 7.78906 8.83594 8.16406C8.64844 8.53906 8.55208 8.97396 8.54688 9.46875H10.4219C10.4219 9.21354 10.4688 8.99479 10.5625 8.8125C10.6615 8.63021 10.7891 8.48177 10.9453 8.36719C11.1016 8.2526 11.2786 8.16927 11.4766 8.11719C11.6745 8.0599 11.8802 8.03125 12.0938 8.03125C12.3646 8.03125 12.6042 8.0651 12.8125 8.13281C13.026 8.19531 13.2057 8.29167 13.3516 8.42188C13.4818 8.54688 13.5807 8.70573 13.6484 8.89844C13.7214 9.08594 13.7578 9.30469 13.7578 9.55469C13.7578 9.77865 13.7109 9.9974 13.6172 10.2109C13.5286 10.4245 13.4115 10.6302 13.2656 10.8281C13.1146 11.0312 12.9479 11.2266 12.7656 11.4141C12.5885 11.5964 12.4115 11.7708 12.2344 11.9375C11.9844 12.151 11.7865 12.3438 11.6406 12.5156C11.4948 12.6875 11.3854 12.8698 11.3125 13.0625C11.2396 13.2604 11.1901 13.4844 11.1641 13.7344C11.1432 13.9792 11.1328 14.2839 11.1328 14.6484ZM10.875 17.0547C10.875 17.3464 10.9714 17.5938 11.1641 17.7969C11.3568 17.9948 11.6302 18.0938 11.9844 18.0938C12.3333 18.0938 12.6068 17.9948 12.8047 17.7969C13.0078 17.5938 13.1094 17.3464 13.1094 17.0547C13.1094 16.7474 13.0078 16.4922 12.8047 16.2891C12.6068 16.0859 12.3333 15.9844 11.9844 15.9844C11.6302 15.9844 11.3568 16.0859 11.1641 16.2891C10.9714 16.4922 10.875 16.7474 10.875 17.0547Z" fill="#9EA3AC"/>
</svg>
